<svg xmlns="http://www.w3.org/2000/svg" viewBox="0 0 48 48" xmlns:xlink="http://www.w3.org/1999/xlink" xml:space="preserve" width="100%" height="100%"><g fill="none" stroke="currentColor" stroke-width="3" transform="scale(.75)"><path d="M21.68 42.22h15.49a1.68 1.68 0 0 0 1.68-1.68l5.85-21.42a1.68 1.68 0 0 0-1.7-1.68H17.61a1.69 1.69 0 0 0-1.69 1.68l-5 21.42a1.68 1.68 0 0 0 1.68 1.68h2.18"></path><path d="M41.66 42.22h-3.47l5-17.29h8.22a.85.85 0 0 1 .65.3l3.58 6.3a.8.8 0 0 1 .2.53l-3.33 10.16h-3.6"></path><ellipse cx="18.31" cy="43.31" rx="3.71" ry="3.76"></ellipse><ellipse cx="45.35" cy="43.31" rx="3.71" ry="3.76"></ellipse><path stroke-linecap="round" d="M23.25 22.36H6.87m13.15 5.24H8.45m12.74 5.9H3.21"></path></g></svg>