<svg xmlns="http://www.w3.org/2000/svg" viewBox="0 0 48 48" xmlns:xlink="http://www.w3.org/1999/xlink" xml:space="preserve" width="100%" height="100%"><g fill="none" stroke="currentColor" stroke-width="3" transform="scale(.75)"><path d="M45.56 46.83v9.43H7.94V20.6L19.9 7.74h25.66v13.55"></path><path d="M19.92 7.74 19.9 20.6H7.94m5.15 27.07H31.1m-18.01-6.53H29.1m-16.01-6.1H33.1m-20.01-6.1H39.1m-4.65 14.29.15 4.3a.49.49 0 0 0 .62.46l4.13-1.11a.54.54 0 0 0 .34-.23l18.07-24.44a1.23 1.23 0 0 0-.26-1.72l-3.14-2.34a1.22 1.22 0 0 0-1.72.26L34.57 42.84a.67.67 0 0 0-.12.39ZM50.2 21.7l5.07 3.87"></path></g></svg>