<svg xmlns="http://www.w3.org/2000/svg" viewBox="0 0 48 48" xmlns:xlink="http://www.w3.org/1999/xlink" xml:space="preserve" width="100%" height="100%"><g xmlns="http://www.w3.org/2000/svg" transform="scale(1.33333)"><circle cx="18" cy="26.06" r="1.33" class="clr-i-outline clr-i-outline-path-1"></circle><path d="M18 22.61a1 1 0 0 1-1-1v-12a1 1 0 1 1 2 0v12a1 1 0 0 1-1 1" class="clr-i-outline clr-i-outline-path-2"></path><path d="M18 34a16 16 0 1 1 16-16 16 16 0 0 1-16 16m0-30a14 14 0 1 0 14 14A14 14 0 0 0 18 4" class="clr-i-outline clr-i-outline-path-3"></path><path fill="none" d="M0 0h36v36H0z"></path></g></svg>