<svg xmlns="http://www.w3.org/2000/svg" viewBox="0 0 48 48" xmlns:xlink="http://www.w3.org/1999/xlink" xml:space="preserve" width="100%" height="100%"><g fill="none" stroke="currentColor" stroke-width="3" transform="scale(.75)"><circle cx="31.89" cy="22.71" r="5.57"></circle><path d="M43.16 43.74a11.28 11.28 0 0 0-11.27-11.27 11.27 11.27 0 0 0-11.27 11.27Z"></path><circle cx="48.46" cy="22.71" r="5.57"></circle><path d="M46.87 43.74h12.86a11.27 11.27 0 0 0-11.27-11.27 11.24 11.24 0 0 0-5.29 1.32"></path><circle cx="15.54" cy="22.71" r="5.57"></circle><path d="M17.13 43.74H4.27a11.27 11.27 0 0 1 11.27-11.27 11.24 11.24 0 0 1 5.29 1.32"></path></g></svg>