<svg xmlns="http://www.w3.org/2000/svg" viewBox="0 0 48 48" xmlns:xlink="http://www.w3.org/1999/xlink" xml:space="preserve" width="100%" height="100%"><path xmlns="http://www.w3.org/2000/svg" fill-rule="evenodd" d="M22.06 5.18a3 3 0 0 1 3.88 0l15 12.726A3 3 0 0 1 42 20.194V39a3 3 0 0 1-3 3H27.5a1.5 1.5 0 0 1-1.5-1.5V28h-4v12.5a1.5 1.5 0 0 1-1.5 1.5H9a3 3 0 0 1-3-3V20.194c0-.88.388-1.718 1.06-2.288zM24 7.468 9 20.194V39h10V26.5a1.5 1.5 0 0 1 1.5-1.5h7a1.5 1.5 0 0 1 1.5 1.5V39h10V20.194z"></path></svg>