<svg xmlns="http://www.w3.org/2000/svg" viewBox="0 0 48 48" xmlns:xlink="http://www.w3.org/1999/xlink" xml:space="preserve" width="100%" height="100%"><g fill="none" stroke="currentColor" stroke-width="3" transform="scale(.75)"><path stroke-linecap="round" d="M52.35 57.08h-40.7v-50a.11.11 0 0 1 .16-.08l4.11 3.85a.11.11 0 0 0 .13 0L19.35 7a.09.09 0 0 1 .12 0l3.72 3.89a.11.11 0 0 0 .13 0L26.61 7a.09.09 0 0 1 .13 0l2.86 3.87a.1.1 0 0 0 .14 0L33 7a.09.09 0 0 1 .13 0l2.69 3.85a.1.1 0 0 0 .14 0L38.86 7A.1.1 0 0 1 39 7l2.85 3.85a.1.1 0 0 0 .14 0L44.7 7a.09.09 0 0 1 .15 0l2.25 3.84a.09.09 0 0 0 .13 0L52.2 7a.1.1 0 0 1 .15.09ZM19.42 43.04h26.6m-26.6 6.25h26.6"></path><path d="M37.87 21.74a5.62 5.62 0 0 0-5.28-3.4c-4.76 0-4.94 3.4-4.94 3.4s-.72 4.2 5.11 4.65c6.06.47 5.11 4.65 5.11 4.65s-.62 3.64-5.11 3.87-5.89-4.49-5.89-4.49m5.72-15.11V38.4"></path></g></svg>