<svg xmlns="http://www.w3.org/2000/svg" viewBox="0 0 48 48" xmlns:xlink="http://www.w3.org/1999/xlink" xml:space="preserve" width="100%" height="100%"><g fill="none" stroke="currentColor" stroke-width="3" transform="scale(.75)"><path d="m14 39.87 10.59 10.64s33-14 31.23-42.29c0 0-26.18-3.94-41.82 31.65Z"></path><path d="M44.69 9.09a12.3 12.3 0 0 0 3.48 6.73 12.3 12.3 0 0 0 7 3.52"></path><circle cx="39.46" cy="24.56" r="6.2"></circle><path d="m14.89 37.82-5.3.68a.27.27 0 0 1-.28-.37l3.93-9a2.65 2.65 0 0 1 1.88-1.53l6.59-1.38m4.84 23.18-.69 5.3a.27.27 0 0 0 .37.28l9-3.92a2.69 2.69 0 0 0 1.53-1.89l1.38-6.59m-15.93 5.55c-2.37 7.41-14.1 7.78-14.1 7.78S8 44.51 15.76 41.67"></path></g></svg>