<svg width="512" height="512" viewBox="0 0 512 512" fill="none" xmlns="http://www.w3.org/2000/svg">
<g id="satellite-dish 1" clip-path="url(#clip0_1_2)">
<g id="Dish">
<path id="Vector" d="M53.142 502H326.957C326.957 468.822 300.061 441.925 266.882 441.925H113.217C80.038 441.925 53.142 468.822 53.142 502Z" fill="#4DBAF6"/>
<path id="Vector_2" d="M224.095 369.604V441.925H144.367L174.404 346.215" fill="#6A80FF"/>
<path id="Vector_3" d="M136.157 72.145C72.565 135.737 79.478 245.753 151.598 317.873C223.718 389.993 333.734 396.906 397.326 333.314" fill="#99BBFF"/>
<path id="Vector_4" d="M397.315 333.302C423.121 307.496 385.578 228.115 313.461 155.998C241.345 83.8818 161.963 46.3389 136.158 72.1441C110.353 97.9493 147.896 177.331 220.012 249.447C292.129 321.564 371.51 359.107 397.315 333.302Z" fill="white"/>
<path id="Vector_5" d="M249.522 274.343L252.441 271.424C267.631 256.234 267.631 231.606 252.441 216.415C237.251 201.225 212.623 201.225 197.432 216.415L194.513 219.334" fill="#72D8FF"/>
<path id="Vector_6" d="M332.499 158.6C344.787 158.6 354.749 148.638 354.749 136.35C354.749 124.062 344.787 114.1 332.499 114.1C320.211 114.1 310.249 124.062 310.249 136.35C310.249 148.638 320.211 158.6 332.499 158.6Z" fill="#FFB954"/>
<path id="Vector_7" d="M342.031 186.882C337.756 190.362 337.106 196.651 340.577 200.935C340.696 201.083 340.842 201.252 340.97 201.393C342.944 203.564 345.653 204.666 348.372 204.666C350.772 204.666 353.18 203.807 355.096 202.065C359.091 198.433 359.469 192.307 356.012 188.216C352.508 184.028 346.282 183.423 342.031 186.882Z" fill="black"/>
<path id="Vector_8" d="M376.597 215.704C373.471 211.151 367.247 209.993 362.694 213.12C358.14 216.245 356.983 222.471 360.109 227.024C376.482 250.876 387.762 273.268 392.73 291.781C397.093 308.046 396.215 320.285 390.255 326.244C381.254 335.246 358.844 332.562 330.315 319.067C308.981 308.977 285.841 293.763 262.812 274.848C276.379 258.258 277.391 234.767 265.854 217.146L317.898 165.102C322.473 167.422 327.487 168.589 332.503 168.589C340.762 168.589 349.021 165.445 355.308 159.159C367.881 146.584 367.881 126.125 355.308 113.551C342.734 100.978 322.273 100.977 309.699 113.551C299.594 123.657 297.617 138.854 303.756 150.96L251.716 203C243.827 197.814 234.598 195.025 224.937 195.025C213.557 195.025 202.773 198.889 194.077 205.99C175.418 183.182 160.398 160.286 150.405 139.158C136.911 110.626 134.227 88.219 143.228 79.218C156.691 65.753 203.96 77.605 265.039 126.09C269.365 129.523 275.656 128.801 279.089 124.475C282.523 120.149 281.8 113.859 277.475 110.425C247.488 86.621 218.217 69.36 192.829 60.508C156.575 47.866 138.161 56.008 129.095 65.068C129.092 65.071 129.089 65.073 129.087 65.075C96.273 97.89 79.907 143.122 83.007 192.439C86.076 241.283 107.925 288.341 144.528 324.945C151.02 331.437 157.847 337.455 164.948 342.996C164.922 343.072 164.889 343.144 164.865 343.221L137.026 431.925H113.219C74.579 431.925 43.144 463.361 43.144 502C43.144 507.522 47.622 512 53.144 512H326.959C332.481 512 336.959 507.522 336.959 502C336.959 463.36 305.523 431.925 266.885 431.925H234.098V378.819C248.1 382.959 262.487 385.552 277.035 386.466C280.987 386.715 284.909 386.838 288.805 386.838C333.519 386.837 374.215 370.57 404.401 340.386C412.343 332.444 420.117 316.664 412.049 286.598C406.498 265.919 394.239 241.405 376.597 215.704ZM323.841 127.691C326.229 125.302 329.365 124.108 332.503 124.108C335.64 124.108 338.777 125.302 341.165 127.69C345.941 132.466 345.941 140.238 341.165 145.014C336.39 149.79 328.616 149.79 323.841 145.014C319.064 140.239 319.064 132.467 323.841 127.691ZM224.937 215.023C232.651 215.023 239.904 218.025 245.36 223.477C245.363 223.48 245.366 223.484 245.369 223.487C245.372 223.49 245.376 223.493 245.379 223.496C255.826 233.953 256.568 250.484 247.62 261.812C240.71 255.63 233.848 249.144 227.087 242.384C220.116 235.413 213.437 228.333 207.081 221.204C212.154 217.201 218.376 215.023 224.937 215.023ZM315.954 492H64.145C68.791 469.162 89.029 451.925 113.217 451.925H266.883C291.071 451.925 311.309 469.162 315.954 492ZM214.096 431.925H157.986L182.098 355.099C192.353 361.607 203.06 367.174 214.097 371.745L214.096 431.925ZM158.669 310.802C125.512 277.645 105.729 235.164 102.965 191.184C101.132 162.001 106.973 134.508 119.672 110.903C121.774 121.962 125.987 134.308 132.325 147.708C148.643 182.209 177.275 220.855 212.946 256.526C248.618 292.198 287.263 320.83 321.764 337.147C335.138 343.473 347.462 347.681 358.505 349.788C298.268 382.032 215.854 367.988 158.669 310.802Z" fill="black"/>
</g>
<path id="Wave1" d="M332.655 53.385C327.133 53.385 322.655 57.862 322.655 63.385C322.655 68.908 327.133 73.385 332.655 73.385C367.292 73.385 395.471 101.564 395.471 136.201C395.471 141.724 399.949 146.201 405.471 146.201C410.993 146.201 415.471 141.724 415.471 136.201C415.472 90.536 378.32 53.385 332.655 53.385Z" fill="black"/>
<path id="Wave2" d="M332.655 0C327.133 0 322.655 4.477 322.655 10C322.655 15.523 327.133 20 332.655 20C396.728 20 448.856 72.127 448.856 136.201C448.856 141.724 453.334 146.201 458.856 146.201C464.378 146.201 468.856 141.724 468.856 136.201C468.856 61.1 407.757 0 332.655 0Z" fill="black"/>
</g>
<defs>
<clipPath id="clip0_1_2">
<rect width="512" height="512" fill="white"/>
</clipPath>
</defs>
</svg>
